<?xml version="1.0" encoding="UTF-8" standalone="no"?>
<!DOCTYPE svg PUBLIC "-//W3C//DTD SVG 1.1//EN" "http://www.w3.org/Graphics/SVG/1.1/DTD/svg11.dtd">
<svg width="100%" height="100%" viewBox="0 0 1000 1000" version="1.1" xmlns="http://www.w3.org/2000/svg" xmlns:xlink="http://www.w3.org/1999/xlink" xml:space="preserve" xmlns:serif="http://www.serif.com/" style="fill-rule:evenodd;clip-rule:evenodd;stroke-linejoin:round;stroke-miterlimit:2;">
    <rect id="Artboard1" x="0" y="0" width="1000" height="1000" style="fill:none;"/>
    <g id="Artboard11" serif:id="Artboard1">
        <g transform="matrix(-1,0,0,-1.05619,1000,1000)">
            <g transform="matrix(1,0,0,0.689644,0,-1.1724e-13)">
                <rect x="0" y="0" width="1000" height="76.271" style="fill:rgb(177,235,244);"/>
            </g>
            <g transform="matrix(1,0,0,0.689644,0,52.6)">
                <rect x="0" y="0" width="1000" height="76.271" style="fill:rgb(183,231,234);"/>
            </g>
            <g transform="matrix(1,0,0,0.689644,0,105.2)">
                <rect x="0" y="0" width="1000" height="76.271" style="fill:rgb(195,224,216);"/>
            </g>
            <g transform="matrix(1,0,0,0.689644,0,157.8)">
                <rect x="0" y="0" width="1000" height="76.271" style="fill:rgb(207,217,196);"/>
            </g>
            <g transform="matrix(1,0,0,0.689644,0,210.4)">
                <rect x="0" y="0" width="1000" height="76.271" style="fill:rgb(214,212,185);"/>
            </g>
            <g transform="matrix(1,0,0,0.689644,0,263)">
                <rect x="0" y="0" width="1000" height="76.271" style="fill:rgb(223,207,171);"/>
            </g>
            <g transform="matrix(1,0,0,0.689644,0,315.6)">
                <rect x="0" y="0" width="1000" height="76.271" style="fill:rgb(231,201,157);"/>
            </g>
            <g transform="matrix(1,0,0,0.689644,0,368.2)">
                <rect x="0" y="0" width="1000" height="76.271" style="fill:rgb(242,195,140);"/>
            </g>
            <g transform="matrix(1,0,0,0.689644,0,420.8)">
                <rect x="0" y="0" width="1000" height="76.271" style="fill:rgb(252,189,124);"/>
            </g>
            <g transform="matrix(1,0,0,0.689644,0,473.4)">
                <rect x="0" y="0" width="1000" height="76.271" style="fill:rgb(245,192,122);"/>
            </g>
            <g transform="matrix(1,0,0,0.689644,0,526)">
                <rect x="0" y="0" width="1000" height="76.271" style="fill:rgb(235,197,124);"/>
            </g>
            <g transform="matrix(1,0,0,0.689644,0,578.6)">
                <rect x="0" y="0" width="1000" height="76.271" style="fill:rgb(218,206,129);"/>
            </g>
            <g transform="matrix(1,0,0,0.689644,0,631.2)">
                <rect x="0" y="0" width="1000" height="76.271" style="fill:rgb(200,215,134);"/>
            </g>
            <g transform="matrix(1,0,0,0.689644,0,683.8)">
                <rect x="0" y="0" width="1000" height="76.271" style="fill:rgb(191,219,136);"/>
            </g>
            <g transform="matrix(1,0,0,0.689644,0,736.4)">
                <rect x="0" y="0" width="1000" height="76.271" style="fill:rgb(177,226,140);"/>
            </g>
            <g transform="matrix(1,0,0,0.689644,0,789)">
                <rect x="0" y="0" width="1000" height="76.271" style="fill:rgb(162,234,144);"/>
            </g>
            <g transform="matrix(1,0,0,0.689644,0,841.6)">
                <rect x="0" y="0" width="1000" height="76.271" style="fill:rgb(146,241,148);"/>
            </g>
            <g transform="matrix(1,0,0,0.689644,0,894.2)">
                <rect x="0" y="0" width="1000" height="76.271" style="fill:rgb(125,252,153);"/>
            </g>
        </g>
    </g>
</svg>
