<?xml version="1.0" encoding="UTF-8" standalone="no"?>
<!DOCTYPE svg PUBLIC "-//W3C//DTD SVG 1.1//EN" "http://www.w3.org/Graphics/SVG/1.1/DTD/svg11.dtd">
<svg width="100%" height="100%" viewBox="0 0 1000 1000" version="1.1" xmlns="http://www.w3.org/2000/svg" xmlns:xlink="http://www.w3.org/1999/xlink" xml:space="preserve" xmlns:serif="http://www.serif.com/" style="fill-rule:evenodd;clip-rule:evenodd;stroke-linecap:round;stroke-linejoin:round;stroke-miterlimit:1.5;">
    <rect id="Artboard1" x="0" y="0" width="1000" height="1000" style="fill:none;"/>
    <g id="Artboard11" serif:id="Artboard1">
        <g>
            <rect x="0" y="0" width="1000" height="1000" style="fill:url(#_Radial1);"/>
            <g id="_19" serif:id="19" transform="matrix(24.5219,0,0,24.5219,-11760.9,-11760.9)">
                <circle cx="500" cy="500" r="19.37" style="fill:rgb(239,252,255);"/>
            </g>
            <g id="_18" serif:id="18" transform="matrix(23.2312,0,0,23.2312,-11115.6,-11115.6)">
                <circle cx="500" cy="500" r="19.37" style="fill:rgb(121,254,159);stroke:rgb(239,252,255);stroke-width:0.04px;"/>
            </g>
            <g id="_17" serif:id="17" transform="matrix(21.9406,0,0,21.9406,-10470.3,-10470.3)">
                <circle cx="500" cy="500" r="19.37" style="fill:rgb(125,253,167);stroke:rgb(239,252,255);stroke-width:0.04px;"/>
            </g>
            <g id="_16" serif:id="16" transform="matrix(20.65,0,0,20.65,-9825,-9825)">
                <circle cx="500" cy="500" r="19.37" style="fill:rgb(131,251,179);stroke:rgb(239,252,255);stroke-width:0.04px;"/>
            </g>
            <g id="_15" serif:id="15" transform="matrix(19.3594,0,0,19.3594,-9179.69,-9179.69)">
                <circle cx="500" cy="500" r="19.37" style="fill:rgb(138,249,191);stroke:rgb(239,252,255);stroke-width:0.04px;"/>
            </g>
            <g id="_14" serif:id="14" transform="matrix(18.0687,0,0,18.0687,-8534.37,-8534.37)">
                <circle cx="500" cy="500" r="19.37" style="fill:rgb(143,247,202);stroke:rgb(239,252,255);stroke-width:0.05px;"/>
            </g>
            <g id="_13" serif:id="13" transform="matrix(16.7781,0,0,16.7781,-7889.06,-7889.06)">
                <circle cx="500" cy="500" r="19.37" style="fill:rgb(149,246,214);stroke:rgb(239,252,255);stroke-width:0.05px;"/>
            </g>
            <g id="_12" serif:id="12" transform="matrix(15.4875,0,0,15.4875,-7243.75,-7243.75)">
                <circle cx="500" cy="500" r="19.37" style="fill:rgb(154,244,224);stroke:rgb(239,252,255);stroke-width:0.05px;"/>
            </g>
            <g id="_11" serif:id="11" transform="matrix(14.1969,0,0,14.1969,-6598.44,-6598.44)">
                <circle cx="500" cy="500" r="19.37" style="fill:rgb(161,242,237);stroke:rgb(239,252,255);stroke-width:0.06px;"/>
            </g>
            <g id="_10" serif:id="10" transform="matrix(12.9062,0,0,12.9062,-5953.12,-5953.12)">
                <circle cx="500" cy="500" r="19.37" style="fill:rgb(166,240,246);stroke:rgb(239,252,255);stroke-width:0.06px;"/>
            </g>
            <g id="_9" serif:id="9" transform="matrix(11.6156,0,0,11.6156,-5307.81,-5307.81)">
                <circle cx="500" cy="500" r="19.37" style="fill:rgb(172,238,252);stroke:rgb(239,252,255);stroke-width:0.07px;"/>
            </g>
            <g id="_8" serif:id="8" transform="matrix(10.325,0,0,10.325,-4662.5,-4662.5)">
                <circle cx="500" cy="500" r="19.37" style="fill:rgb(182,232,236);stroke:rgb(239,252,255);stroke-width:0.08px;"/>
            </g>
            <g id="_7" serif:id="7" transform="matrix(9.03437,0,0,9.03437,-4017.19,-4017.19)">
                <circle cx="500" cy="500" r="19.37" style="fill:rgb(192,225,219);stroke:rgb(239,252,255);stroke-width:0.09px;"/>
            </g>
            <g id="_6" serif:id="6" transform="matrix(7.74375,0,0,7.74375,-3371.87,-3371.87)">
                <circle cx="500" cy="500" r="19.37" style="fill:rgb(203,219,203);stroke:rgb(239,252,255);stroke-width:0.11px;"/>
            </g>
            <g id="_5" serif:id="5" transform="matrix(6.45312,0,0,6.45312,-2726.56,-2726.56)">
                <circle cx="500" cy="500" r="19.37" style="fill:rgb(210,215,191);stroke:rgb(239,252,255);stroke-width:0.13px;"/>
            </g>
            <g id="_4" serif:id="4" transform="matrix(5.1625,0,0,5.1625,-2081.25,-2081.25)">
                <circle cx="500" cy="500" r="19.37" style="fill:rgb(221,208,173);stroke:rgb(239,252,255);stroke-width:0.16px;"/>
            </g>
            <g id="_3" serif:id="3" transform="matrix(3.87187,0,0,3.87187,-1435.94,-1435.94)">
                <circle cx="500" cy="500" r="19.37" style="fill:rgb(227,204,163);stroke:rgb(239,252,255);stroke-width:0.22px;"/>
            </g>
            <g id="_2" serif:id="2" transform="matrix(2.58125,0,0,2.58125,-790.625,-790.625)">
                <circle cx="500" cy="500" r="19.37" style="fill:rgb(240,196,143);stroke:rgb(239,252,255);stroke-width:0.32px;"/>
            </g>
            <g id="_1" serif:id="1" transform="matrix(1.29062,0,0,1.29062,-145.312,-145.312)">
                <circle cx="500" cy="500" r="19.37" style="fill:rgb(248,191,130);stroke:rgb(239,252,255);stroke-width:0.65px;"/>
            </g>
        </g>
    </g>
    <defs>
        <radialGradient id="_Radial1" cx="0" cy="0" r="1" gradientUnits="userSpaceOnUse" gradientTransform="matrix(4.14108e-14,-676.289,676.289,4.14108e-14,500,500)"><stop offset="0" style="stop-color:rgb(119,255,156);stop-opacity:1"/><stop offset="0.65" style="stop-color:rgb(136,255,170);stop-opacity:1"/><stop offset="0.84" style="stop-color:rgb(183,254,209);stop-opacity:1"/><stop offset="1" style="stop-color:rgb(239,252,255);stop-opacity:1"/></radialGradient>
    </defs>
</svg>
