<?xml version="1.0" encoding="UTF-8" standalone="no"?>
<!DOCTYPE svg PUBLIC "-//W3C//DTD SVG 1.1//EN" "http://www.w3.org/Graphics/SVG/1.1/DTD/svg11.dtd">
<svg width="100%" height="100%" viewBox="0 0 16 17" version="1.1" xmlns="http://www.w3.org/2000/svg" xmlns:xlink="http://www.w3.org/1999/xlink" xml:space="preserve" xmlns:serif="http://www.serif.com/" style="fill-rule:evenodd;clip-rule:evenodd;stroke-linecap:round;stroke-linejoin:round;stroke-miterlimit:1.5;">
    <g transform="matrix(1,0,0,1,-4206,-698)">
        <g transform="matrix(1,0,0,1,-0.333333,0)">
            <g transform="matrix(0.0248908,0,0,0.0248908,4137.21,691.445)">
                <g transform="matrix(2.84984,0,0,2.84984,864.543,-1286.8)">
                    <g transform="matrix(0.305767,0,0,0.305767,-163.117,470.159)">
                        <g transform="matrix(1.27583,1.45064,-1.33561,1.17466,-302.86,-4942.52)">
                            <path d="M3319.8,367.893L3349.51,432.413L3290.1,432.413L3319.8,367.893Z" style="fill:rgb(0,10,20);stroke:rgb(0,10,20);stroke-width:10.35px;"/>
                        </g>
                        <g transform="matrix(1.32024,-1.41034,1.29851,1.21556,-2079.96,4539.59)">
                            <path d="M3319.8,367.893L3349.51,432.413L3290.1,432.413L3319.8,367.893Z" style="fill:rgb(0,10,20);stroke:rgb(0,10,20);stroke-width:10.35px;"/>
                        </g>
                        <g transform="matrix(1.93186,5.55112e-16,5.55112e-16,-1.77868,-3295.8,1634.17)">
                            <path d="M3319.8,367.893L3349.51,432.413L3290.1,432.413L3319.8,367.893Z" style="fill:rgb(0,10,20);stroke:rgb(0,10,20);stroke-width:10.35px;"/>
                        </g>
                    </g>
                    <g transform="matrix(0.976416,0,0,0.976416,18.6309,4.79524)">
                        <circle cx="790.149" cy="651.59" r="81.932" style="fill:none;stroke:rgb(0,10,20);stroke-width:6.02px;"/>
                    </g>
                    <g transform="matrix(0.967519,0,0,0.967519,242.445,162.152)">
                        <g transform="matrix(0.866025,-0.5,0.5,0.866025,-171.633,393.361)">
                            <path d="M558.349,423.694C556.892,426.355 555.581,429.087 554.436,431.885L554.421,431.919L554.389,432.001L553.265,434.807L552.626,436.654L552.488,437.017L552.394,437.325C551.289,440.583 550.383,443.906 549.682,447.273L549.622,447.525L549.526,448.086L549.061,450.496L548.81,452.249L548.698,452.898L548.645,453.397L548.483,454.526L548.14,458.138L548.12,458.327L548.118,458.368C547.995,460.038 547.921,461.714 547.908,463.394L547.892,463.796L547.91,464.605L547.914,466.754L547.999,468.467L548.018,469.285L548.069,469.859L548.119,470.853L548.478,474.475L548.505,474.778L548.513,474.834C548.715,476.485 548.966,478.133 549.28,479.775L549.355,480.256L549.553,481.14L549.947,483.114L550.378,484.825L550.575,485.703L550.741,486.269L550.967,487.165L552.105,490.891L552.168,491.101L552.18,491.136C552.714,492.742 553.298,494.34 553.95,495.921L554.139,496.432L554.526,497.294L555.287,499.109L556.104,500.811L556.493,501.679L556.768,502.194L557.153,502.996L559.235,506.824C559.235,506.824 553.597,506.632 553.597,506.632L551.75,506.456L548.057,506.079L545.895,505.735L542.624,505.176L540.374,504.67L537.311,503.932L535.054,503.276L532.127,502.359L529.908,501.562L527.08,500.467L524.931,499.542L522.179,498.263L520.128,497.227L517.022,495.529L515.968,494.922L513.221,493.18L511.331,491.948L508.667,490.007L506.998,488.763L504.266,486.491L502.886,485.32L500.009,482.598L499.007,481.634L495.869,478.26L495.371,477.717C491.809,473.63 488.635,469.194 485.905,464.471C500.538,439.156 527.913,422.118 559.235,422.118L559.262,422.118L558.349,423.694Z" style="fill:rgb(35,136,255);stroke:rgb(0,10,20);stroke-width:6.07px;"/>
                        </g>
                        <g transform="matrix(0.866025,0.5,-0.5,0.866025,335.19,-165.874)">
                            <path d="M559.222,422.141C573.627,422.096 588.226,425.751 601.588,433.466C614.941,441.175 625.401,451.981 632.566,464.471C617.933,489.785 590.558,506.824 559.235,506.824L561.318,502.996C574.766,476.705 573.147,446.291 559.222,422.141Z" style="fill:rgb(36,255,133);stroke:rgb(0,10,20);stroke-width:6.07px;"/>
                        </g>
                        <g transform="matrix(0.866025,0.5,-0.5,0.866025,335.19,-165.874)">
                            <path d="M502.886,485.321C485.487,469.817 474.529,447.237 474.529,422.118C474.529,406.699 478.658,392.238 485.891,379.788L491.297,379.947C503.918,380.726 516.547,384.368 528.231,391.113C544.923,400.75 557.094,415.227 563.979,431.764C562.605,428.466 561.016,425.251 559.222,422.141C529.988,422.158 501.555,437.337 485.892,464.448C487.715,467.604 489.735,470.631 491.937,473.511L492.014,473.609L495.162,477.463L495.627,477.999L499.118,481.754L502.886,485.321Z" style="fill:rgb(255,255,87);stroke:rgb(0,10,20);stroke-width:6.07px;"/>
                        </g>
                        <g transform="matrix(0.866025,0.5,-0.5,0.866025,335.19,-165.874)">
                            <path d="M502.886,485.321L499.118,481.754L495.627,477.999L495.162,477.463L492.014,473.609L491.937,473.511C489.735,470.631 487.715,467.604 485.892,464.448C501.555,437.337 529.988,422.158 559.222,422.141C561.016,425.251 562.605,428.466 563.979,431.764L564.102,432.055L565.989,437.037L567.477,441.881L567.698,442.704L568.758,447.148L568.878,447.695L569.736,452.692L569.836,453.492L570.279,457.655L570.375,458.889L570.573,463.664L570.578,463.837L570.464,468.77L570.379,470.113L570.041,473.931L569.899,475.209L569.145,480.062L568.959,480.958L568.06,484.973L567.682,486.431L566.509,490.403L566.229,491.302L564.486,496.015L563.963,497.255L562.34,500.872L561.71,502.181L559.235,506.824C559.235,506.824 553.992,506.646 553.992,506.646L552.463,506.529L548.627,506.137L547.15,505.95L542.122,505.089L541.872,505.032L537.188,503.902L535.756,503.495L532.152,502.367L530.833,501.92L526.171,500.114L525.842,499.966L521.64,498.011L520.4,497.376L517.01,495.522L515.96,494.918L511.713,492.224L511.525,492.09L507.671,489.281L506.759,488.565L503.512,485.863L502.886,485.321Z" style="fill:rgb(235,244,255);stroke:rgb(0,10,20);stroke-width:6.07px;"/>
                        </g>
                    </g>
                </g>
                <g id="ROS-sigil" serif:id="ROS sigil" transform="matrix(0.316012,0,0,0.316012,2265.64,388.721)">
                    <g transform="matrix(0.743647,0,0,0.956117,674.684,18.9755)">
                        <path d="M2713.77,338.282L2807.9,432.413L2713.77,526.543L2619.64,432.413L2713.77,338.282Z" style="fill:none;stroke:rgb(235,244,255);stroke-width:61.85px;"/>
                    </g>
                    <g transform="matrix(0.371359,0,0,0.371359,1692.91,271.832)">
                        <circle cx="2692.43" cy="432.413" r="13.464" style="stroke:rgb(235,244,255);stroke-width:142.64px;"/>
                    </g>
                    <g transform="matrix(2,0,0,1.96736,-2622.1,-428.133)">
                        <path d="M2657.43,437.413L2692.43,507.413L2622.43,507.413L2657.43,437.413Z" style="fill:none;stroke:rgb(235,244,255);stroke-width:26.7px;"/>
                    </g>
                    <g transform="matrix(1,0,0,1,0.333333,0)">
                        <path d="M2693.04,522.244C2692.85,554.067 2691.83,585.777 2691.72,617.63C2691.67,631.791 2688.32,648.34 2692.74,662.088C2700.36,685.756 2739.73,695.729 2750.33,668.898C2770.57,617.646 2690.92,598.027 2662.16,636.006C2621.23,690.067 2686.77,747.698 2745.11,719.803C2799.84,693.63 2785.57,617.082 2733.04,598.921C2643.72,568.037 2585.64,690.593 2639.86,745.483C2654.39,760.186 2681.91,761.716 2701.36,762.559C2718.67,763.309 2735.92,761.349 2753.21,761.385C2789.26,761.459 2825.32,762.688 2861.39,762.19" style="fill:none;stroke:rgb(235,244,255);stroke-width:52.97px;"/>
                    </g>
                </g>
                <g transform="matrix(3.32546,0,0,3.49306,-7892.79,-1861.78)">
                    <g>
                        <g transform="matrix(-0.122499,-0.213369,0.122499,-0.213369,3631.04,1550.28)">
                            <path d="M3268.9,652.697C3316.32,656.08 3353.88,699.182 3354.18,737.515L3354.18,737.984C3315.74,737.984 3272.29,700.317 3268.9,652.697Z" style="fill:rgb(0,10,20);stroke:rgb(0,10,20);stroke-width:15.88px;"/>
                        </g>
                        <g transform="matrix(1,0,0,0.952019,0.49552,34.4161)">
                            <circle cx="3310.06" cy="694.234" r="23.054" style="fill:none;stroke:rgb(0,10,20);stroke-width:5.03px;"/>
                        </g>
                    </g>
                </g>
            </g>
        </g>
    </g>
</svg>
